<?xml version="1.0" encoding="iso-8859-1"?>
<!-- Generator: Adobe Illustrator 22.1.0, SVG Export Plug-In . SVG Version: 6.00 Build 0)  -->
<svg xmlns="http://www.w3.org/2000/svg" xmlns:xlink="http://www.w3.org/1999/xlink" version="1.1" id="&#1057;&#1083;&#1086;&#1081;_1" x="0px" y="0px" viewBox="0 0 128 128" style="enable-background:new 0 0 128 128;" xml:space="preserve">
<path style="fill:#A8B2C6;" d="M90.4,119H37.6c-2.5,0-4.6-2.1-4.6-4.6V13.6c0-2.5,2.1-4.6,4.6-4.6h52.8c2.5,0,4.6,2.1,4.6,4.6v100.8  C95,116.9,92.9,119,90.4,119"/>
<polyline style="fill:#FFFFFF;" points="33,9.5 95,9.5 95,98.8 33,98.8 33,9.5 "/>
<path style="fill:#99A2B4;" d="M95,98.8h-9.2V114.4c0,2.5-1,4.6-3.5,4.6H90.4c2.5,0,4.6-2.1,4.6-4.6V98.8"/>
<path style="fill:#E7E7E7;" d="M92.456,9.5L92.456,9.5h-8.329c1.174,0.768,1.673,2.334,1.673,4.1v85.2H95V13.6  C95,11.834,93.952,10.268,92.456,9.5"/>
<path style="fill:#464C55;" d="M90.4,122H37.6c-4.2,0-7.6-3.4-7.6-7.6V13.6C30,9.4,33.4,6,37.6,6h52.8c4.2,0,7.6,3.4,7.6,7.6v100.8  C98,118.6,94.6,122,90.4,122z M37.6,12c-0.9,0-1.6,0.7-1.6,1.6v100.8c0,0.9,0.7,1.6,1.6,1.6h52.8c0.9,0,1.6-0.7,1.6-1.6V13.6  c0-0.9-0.7-1.6-1.6-1.6H37.6z"/>
<path style="fill:#A8B2C6;" d="M73.2,21H54.8c-1.7,0-3-1.3-3-3s1.3-3,3-3h18.3c1.7,0,3,1.3,3,3S74.8,21,73.2,21z"/>
<path style="fill:#FFFFFF;" d="M64,112.4c-2.7,0-5-2.3-5-5s2.3-5,5-5c2.7,0,5,2.3,5,5S66.7,112.4,64,112.4z"/>
</svg>
