<svg xmlns="http://www.w3.org/2000/svg" xmlns:xlink="http://www.w3.org/1999/xlink" viewBox="0 0 150 163.9"><defs><linearGradient id="Degradado_sin_nombre_60" x1="42.15" y1="138.84" x2="107.85" y2="25.03" gradientUnits="userSpaceOnUse"><stop offset="0" stop-color="#29235c"/><stop offset="0.17" stop-color="#342260"/><stop offset="0.46" stop-color="#52206a"/><stop offset="0.85" stop-color="#821c7a"/><stop offset="0.99" stop-color="#951b81"/></linearGradient></defs><title>wewSqwefAsset 11a</title><g id="Layer_2" data-name="Layer 2"><g id="OBJECTS"><path d="M150,107.8V56.1a30.4,30.4,0,0,0-15.1-26.2L90.1,4A30.7,30.7,0,0,0,59.9,4L15.1,29.9A30.4,30.4,0,0,0,0,56.1v51.7a30.1,30.1,0,0,0,15.1,26.1l44.8,25.9a30.2,30.2,0,0,0,30.2,0l44.8-25.9A30.1,30.1,0,0,0,150,107.8Z" fill="#fff"/><path d="M140.7,102.4v-41a30,30,0,0,0-15.1-26.1L90.1,14.8a30.2,30.2,0,0,0-30.2,0L24.4,35.3A30,30,0,0,0,9.3,61.4v41a30.2,30.2,0,0,0,15.1,26.2l35.5,20.5a30.2,30.2,0,0,0,30.2,0l35.5-20.5A30.2,30.2,0,0,0,140.7,102.4Z" fill="url(#Degradado_sin_nombre_60)"/><g id="surface1"><path d="M73.9,38.2c-5.8.1-10.1,1.9-12.6,5.2s-3.7,10.1-1.7,18.1a5.3,5.3,0,0,0-1.1,4c.5,3.5,1.8,4.9,3,5.5A14.8,14.8,0,0,0,65,78.2v.7a40.2,40.2,0,0,1-.2,4.8c-1,2.2-4.2,3.5-7.9,5-6.1,2.4-13.8,5.4-14.4,15v1.7H85.3a18.9,18.9,0,1,0,1.5-18.6,11.7,11.7,0,0,1-2.7-1.9,3.5,3.5,0,0,1-.7-1.2,39.2,39.2,0,0,1-.1-4.8v-.7A15.6,15.6,0,0,0,86.7,71c1.1-.6,2.5-2,2.9-5.5a5.2,5.2,0,0,0-1-3.9c.9-3.1,2.8-11.2-.4-16.4a8.8,8.8,0,0,0-6.1-4.1C80.6,39.2,77.7,38.2,73.9,38.2Zm28.6,43.5A15.8,15.8,0,1,1,86.7,97.5,15.8,15.8,0,0,1,102.5,81.7ZM100.9,88v7.9H93v3.2h7.9v7.8h3.2V99.1h7.8V95.9h-7.8V88ZM84.2,92.5l-.3,1.1Zm-.6,3.2c0,.6-.1,1.2-.1,1.8S83.6,96.3,83.6,95.7Z" fill="#fff"/></g></g></g></svg>