<svg xmlns="http://www.w3.org/2000/svg" xmlns:xlink="http://www.w3.org/1999/xlink" viewBox="0 0 150 163.9"><defs><linearGradient id="Degradado_sin_nombre_58" x1="577.67" y1="152.1" x2="643.38" y2="38.29" gradientTransform="translate(-535.5 -13.3)" gradientUnits="userSpaceOnUse"><stop offset="0.01" stop-color="#3aaa35"/><stop offset="0.2" stop-color="#52b02f"/><stop offset="0.54" stop-color="#76b926"/><stop offset="0.82" stop-color="#8dbf21"/><stop offset="1" stop-color="#95c11f"/></linearGradient></defs><title>wewSqwefAsset 7a</title><g id="Layer_2" data-name="Layer 2"><g id="OBJECTS"><path d="M150,107.8V56.1a30.4,30.4,0,0,0-15.1-26.2L90.1,4A30.7,30.7,0,0,0,59.9,4L15.1,29.9A30.4,30.4,0,0,0,0,56.1v51.7a30.1,30.1,0,0,0,15.1,26.1l44.8,25.9a30.2,30.2,0,0,0,30.2,0l44.8-25.9A30.1,30.1,0,0,0,150,107.8Z" fill="#fff"/><path d="M140.7,102.4v-41a30,30,0,0,0-15.1-26.1L90.1,14.8a30.2,30.2,0,0,0-30.2,0L24.4,35.3A30,30,0,0,0,9.3,61.4v41a30.2,30.2,0,0,0,15.1,26.2l35.5,20.5a30.2,30.2,0,0,0,30.2,0l35.5-20.5A30.2,30.2,0,0,0,140.7,102.4Z" fill="url(#Degradado_sin_nombre_58)"/><g id="surface1"><path d="M78.4,39.9C62.7,39.9,56.8,52,61.3,62.3A4.2,4.2,0,0,0,60,65.9c.4,3.7,2.1,4.6,3,4.8.4,3.6,2.7,7.7,4,8.3,0,2.4-.1,4.4-.3,7-2.8,7.6-21.1,5.8-23.5,19.3a1.8,1.8,0,0,0,1.7,1.9h60.2c1.8,0,1.8-1.3,1.7-1.9C104.4,91.8,86.1,93.6,83.3,86c-.2-2.8-.3-4.6-.3-7,1.3-.6,3.4-4.9,3.8-8.3.9,0,2.4-1.1,3-4.9.2-2-.6-3.3-1.3-3.5,3-3.8,2.4-19.1-8.6-19.1ZM57.6,48.7c-11.9.2-17.1,9.6-13.5,17.7-.4.2-1.1,1.2-.9,2.9S44.7,73,45.4,73c.4,2.9,2.1,6.1,3,6.6a30.3,30.3,0,0,1-.2,4.1c-1.5,4.9-17.5,4.5-17.5,16.4a1.8,1.8,0,0,0,1.8,1.8h8c2.7-7.7,10.1-10.6,15.6-12.8,3.1-1.2,6.2-2.4,7.2-3.9s.1-3.1.1-4.6a19.1,19.1,0,0,1-3.5-7.5c-1.5-1.1-3-3.1-3.4-6.9a7.9,7.9,0,0,1,.8-4.5A19.3,19.3,0,0,1,57.6,48.7Zm40.4,0a37.5,37.5,0,0,0-5.6.5,20.2,20.2,0,0,1,.3,12.6,8.9,8.9,0,0,1,.6,4.4h0c-.5,3.5-1.8,5.6-3.3,6.7a20,20,0,0,1-3.4,7.4c0,1.5,0,2.9.1,4.7s4.1,2.7,7.2,3.9c5.5,2.2,12.9,5.1,15.6,12.8h8a1.7,1.7,0,0,0,1.8-1.7c0-13.7-15.2-10.5-17.4-16.8a25.6,25.6,0,0,1-.3-3.9c1-.6,2.7-3.8,2.9-6.5.8,0,1.9-.8,2.3-3.8.2-1.5-.4-2.6-.9-2.8,2.2-3.1,1.9-15-6.7-15Z" fill="#fcfcfc"/></g></g></g></svg>