<svg xmlns="http://www.w3.org/2000/svg" xmlns:xlink="http://www.w3.org/1999/xlink" viewBox="0 0 150 163.9"><defs><linearGradient id="Degradado_sin_nombre_57" x1="577.67" y1="152.1" x2="643.38" y2="38.29" gradientTransform="translate(-535.5 -13.3)" gradientUnits="userSpaceOnUse"><stop offset="0" stop-color="#2d2e83"/><stop offset="0.14" stop-color="#2e3689"/><stop offset="0.37" stop-color="#2f4d9a"/><stop offset="0.65" stop-color="#3271b6"/><stop offset="0.97" stop-color="#36a4dd"/><stop offset="1" stop-color="#36a9e1"/></linearGradient></defs><title>wewSqwefAsset 12a</title><g id="Layer_2" data-name="Layer 2"><g id="OBJECTS"><path d="M150,107.8V56.1a30.4,30.4,0,0,0-15.1-26.2L90.1,4A30.7,30.7,0,0,0,59.9,4L15.1,29.9A30.4,30.4,0,0,0,0,56.1v51.7a30.1,30.1,0,0,0,15.1,26.1l44.8,25.9a30.2,30.2,0,0,0,30.2,0l44.8-25.9A30.1,30.1,0,0,0,150,107.8Z" fill="#fff"/><path d="M140.7,102.4v-41a30,30,0,0,0-15.1-26.1L90.1,14.8a30.2,30.2,0,0,0-30.2,0L24.4,35.3A30,30,0,0,0,9.3,61.4v41a30.2,30.2,0,0,0,15.1,26.2l35.5,20.5a30.2,30.2,0,0,0,30.2,0l35.5-20.5A30.2,30.2,0,0,0,140.7,102.4Z" fill="url(#Degradado_sin_nombre_57)"/><path d="M54.4,65.7H40v-10H62a25.9,25.9,0,0,1,5.7-3H40.1A3.1,3.1,0,0,0,37,55.9v9.6a3.1,3.1,0,0,0,3.1,3.2H53.2C53.5,67.7,54,66.7,54.4,65.7Z" fill="#fff" stroke="#fff" stroke-miterlimit="10" stroke-width="2"/><path d="M125.8,57.7,113,47a2.9,2.9,0,0,0-3.4-.5,3.4,3.4,0,0,0-1.6,2.9v3.3H87.8a23.2,23.2,0,0,1,5.6,3H111V49.2L123.9,60a1.7,1.7,0,0,1,0,2.4L111,73.2V65.7H101c.5,1,.9,2,1.3,3H108V73a2.9,2.9,0,0,0,1.6,2.8,2.3,2.3,0,0,0,1.4.4,3.2,3.2,0,0,0,2-.8l12.8-10.7a4.6,4.6,0,0,0,0-7Z" fill="#fff" stroke="#fff" stroke-miterlimit="10" stroke-width="2"/><path d="M101.5,87.7H116v9H93.9a27.3,27.3,0,0,1-5.6,3h27.5a3.2,3.2,0,0,0,3.2-3.2V87.9a3.2,3.2,0,0,0-3.2-3.2h-13C102.4,85.7,102,86.7,101.5,87.7Z" fill="#fff" stroke="#fff" stroke-miterlimit="10" stroke-width="2"/><path d="M30.1,95.7l12.8,10.7a3.1,3.1,0,0,0,3.4.5A3.2,3.2,0,0,0,48,104V99.7H68.2a31,31,0,0,1-5.7-3H45v7.4L32.1,93.4a1.5,1.5,0,0,1,0-2.4L45,80.2v7.5h9.9c-.4-1-.9-2-1.2-3H48V80.4a3.1,3.1,0,0,0-1.6-2.8,2.7,2.7,0,0,0-1.4-.4,2.8,2.8,0,0,0-2,.8L30.2,88.7a4.6,4.6,0,0,0-1.7,3.5A4.8,4.8,0,0,0,30.1,95.7Z" fill="#fff" stroke="#fff" stroke-miterlimit="10" stroke-width="2"/><path d="M77.7,103.3a26.9,26.9,0,1,1,26.9-26.8A26.8,26.8,0,0,1,77.7,103.3Zm0-50.5a23.7,23.7,0,1,0,23.7,23.7A23.7,23.7,0,0,0,77.7,52.8Z" fill="#fff" stroke="#fff" stroke-miterlimit="10" stroke-width="2"/><path d="M74.6,68.7H85v-3H79v-3H76v3H74.7A4.7,4.7,0,0,0,70,70.4V74a4.7,4.7,0,0,0,4.7,4.7h6.7A1.6,1.6,0,0,1,83,80.3v2.8a1.6,1.6,0,0,1-1.6,1.6H70v3h6v3h3v-3h1.2A4.7,4.7,0,0,0,85,83V79.4a4.7,4.7,0,0,0-4.8-4.7H74.6A1.6,1.6,0,0,1,73,73.1V70.3A1.6,1.6,0,0,1,74.6,68.7Z" fill="#fff" stroke="#fff" stroke-miterlimit="10" stroke-width="2"/></g></g></svg>