<?xml version="1.0" encoding="utf-8"?>
<!-- Generator: Adobe Illustrator 23.0.4, SVG Export Plug-In . SVG Version: 6.00 Build 0)  -->
<svg version="1.1" xmlns="http://www.w3.org/2000/svg" xmlns:xlink="http://www.w3.org/1999/xlink" x="0px" y="0px"
	 viewBox="0 0 128 128" style="enable-background:new 0 0 128 128;" xml:space="preserve">
<style type="text/css">
	.st0{display:none;}
	.st1{display:inline;}
	.st2{display:inline;fill:#FFFFFF;}
	.st3{fill:#00AADB;stroke:#444B54;stroke-miterlimit:10;}
	.st4{fill:#00AADB;}
	.st5{fill:#444B54;}
	.st6{display:inline;fill:#00AADB;}
	.st7{display:inline;fill:#444B54;}
	.st8{fill:#444B54;stroke:#444B54;stroke-miterlimit:10;}
	.st9{display:none;fill:#00AADB;}
</style>
<g id="Layer_1" class="st0">
	<g>
		<g class="st1">
			<g class="st0">
				<path class="st2" d="M56,42.9v0.6c-2.7,0.2-5.3,1.1-7.4,3L30.9,61.9H18.7v31.2h92.1V42.9H56z"/>
			</g>
			<g>
				<circle class="st3" cx="98.6" cy="68" r="12.2"/>
			</g>
			<path class="st4" d="M85.6,55.2c-0.8-2.1-2.4-3.7-4.5-4.6l-18.6-8.2c-5.1-2.3-11.2-1.4-15.4,2.4L30.1,59.6l0,0H18.7
				c-1.3,0-2.3,1-2.3,2.3v31.2c0,1.3,1,2.3,2.3,2.3h11.4h18.3c1.3,0,2.3-1,2.3-2.3s-1-2.3-2.3-2.3h-16V63.7l17.7-15.5
				c2.9-2.5,7-3.1,10.5-1.6l18.7,8.3c0.9,0.4,1.7,1.1,2.1,2.1c0.4,0.9,0.4,2,0,2.9c-0.8,1.9-3,2.8-5,2l-14.1-6
				c-0.6-0.2-1.3-0.2-1.9,0c-0.6,0.3-1.1,0.8-1.2,1.4L59,57.8c-2.1,6.9-7.8,12-14.8,13.2c-1.2,0.2-2.1,1.4-1.8,2.7
				c0.2,1.1,1.1,1.9,2.3,1.9c0.2,0,0.2,0,0.4,0c8.1-1.4,14.8-6.9,17.7-14.5l11.8,5c4.3,1.8,9.2-0.2,11-4.4
				C86.5,59.6,86.5,57.3,85.6,55.2z M21,64.2h6.9v26.7H21V64.2z"/>
			<g>
				<path class="st4" d="M108.5,95.4H64.4c-5.5,0-9.9-4.4-9.9-9.9v-5.3c0-1.3,1-2.3,2.3-2.3c1.3,0,2.3,1,2.3,2.3v5.3
					c0,3,2.4,5.3,5.3,5.3h44.2c1.3,0,2.3,1,2.3,2.3S109.8,95.4,108.5,95.4z"/>
			</g>
			<g>
				<path class="st4" d="M108.5,45.2H85.7c-1.3,0-2.3-1-2.3-2.3c0-1.3,1-2.3,2.3-2.3h22.8c1.3,0,2.3,1,2.3,2.3
					C110.8,44.2,109.8,45.2,108.5,45.2z"/>
			</g>
		</g>
		<g class="st1">
			<circle class="st5" cx="70.5" cy="80.2" r="4.6"/>
		</g>
	</g>
	<path class="st4" d="M58.9,17c-9.5,0.2-15.6,3.7-18.2,9.4c-2.5,5.4-2,12.3-0.2,19.8c-1,1.1-1.7,2.7-1.5,5l0,0c0.3,2.5,1,4.3,2,5.5
		c0.5,0.7,1.2,0.8,1.9,1.1c0.4,2.1,1,4.3,1.9,6.1c0.5,1,1.1,1.9,1.6,2.7c0.3,0.3,0.6,0.6,0.9,0.8c0,2.5,0.1,4.6-0.2,7.3
		c-0.7,1.6-2.2,2.9-4.7,4.2c-2.6,1.3-6,2.4-9.4,3.9c-3.4,1.5-6.9,3.3-9.7,6.1s-4.8,6.7-5.1,11.8l-0.1,2.2h20.5h3.9l0.8-4.1h-4.7
		H22.9c0.6-2.9,1.7-5.2,3.4-7c2.2-2.2,5.2-3.8,8.4-5.2c3.2-1.4,6.6-2.5,9.6-4c2-1,3.8-2.2,5.2-3.8c0.4,0.1,0.8,0.3,1.2,0.4
		c0.3,0.1,0.7,0.2,1.1,0.3l-5.1,23.3h25l-5.1-23.3c0.4-0.1,0.8-0.2,1.1-0.3c0.5-0.2,1-0.4,1.4-0.5c2.5,2.9,6.6,4.6,11,6.3
		c0.6,0.2,1.2,0.5,1.9,0.7c-0.4-1.3-0.5-2.6-0.2-3.9c0-0.2,0.1-0.4,0.1-0.5c-0.1,0-0.1-0.1-0.2-0.1c-4.9-1.9-9.2-3.6-10.3-6.6
		c0,0,0-0.1-0.1-0.1c-0.2-2.6-0.1-4.6-0.1-7.1c0.3-0.3,0.6-0.5,0.9-0.8c0.6-0.8,1.1-1.7,1.6-2.7c0.9-1.8,1.5-3.9,1.8-6.1
		c0.6-0.3,1.3-0.4,1.9-1.1c1-1.3,1.7-3,2-5.5c0.3-2.2-0.5-3.7-1.4-4.9c1-3.1,2.2-7.9,1.8-12.9c-0.2-2.7-1-5.4-2.8-7.7
		c-1.7-2.1-4.3-3.6-7.7-4.2C67.1,18.9,63.6,17,58.9,17L58.9,17L58.9,17z M59,21.1c3.9,0,6.7,1.8,7.6,3.4l0.5,0.9l1,0.1
		c2.9,0.4,4.5,1.5,5.7,2.9c1.1,1.4,1.7,3.3,1.9,5.5c0.4,4.3-1,9.5-1.9,12.3l-0.5,1.5l1.4,0.8c-0.1-0.1,0.8,0.5,0.6,2.2
		c-0.2,2-0.8,3-1.1,3.5s-0.6,0.4-0.6,0.4l-1.7,0.1l-0.2,1.7c-0.2,1.8-0.9,3.9-1.7,5.6c-0.4,0.8-0.9,1.6-1.2,2.1
		c-0.4,0.5-0.8,0.8-0.6,0.7L67,65.5v1.2c0,2.8-0.1,5.2,0.2,8.4c-0.2,0.1-0.4,0.2-0.7,0.3c-1.4,0.4-3.8,0.9-7.3,0.9
		c-3.5,0-5.9-0.5-7.3-0.9c-0.3-0.1-0.4-0.2-0.6-0.2c0.3-3.2,0.2-5.6,0.2-8.4v-1.2l-1.1-0.6c0.2,0.1-0.2-0.2-0.6-0.7
		c-0.4-0.5-0.8-1.3-1.3-2.1c-0.8-1.7-1.6-3.8-1.8-5.6l-0.2-1.7l-1.7-0.1c0,0-0.2,0-0.6-0.4c-0.4-0.5-0.9-1.5-1.1-3.5v0
		c-0.2-1.7,0.7-2.3,0.6-2.2l1.3-0.8l-0.4-1.5c-1.9-7.4-2.2-13.8-0.2-18.1C46.4,23.9,50.4,21.3,59,21.1z M98,72.2
		c-1.6,0-2.9,0.9-3.8,2.1c-1.4-0.3-2.9-0.2-4.2,0.8c-1.3,1-1.6,2.5-1.5,4c-1.3,0.7-2.4,1.8-2.7,3.4c-0.3,1.6,0.4,2.9,1.4,4
		c-0.6,1.4-0.6,3,0.1,4.3c0.1,0.2,0.3,0.5,0.5,0.7v17.5c0,1.1,0.9,2,2,2c0.4,0,0.9-0.1,1.2-0.4l6.9-5.2l6.9,5.2
		c0.9,0.7,2.2,0.5,2.9-0.4c0.3-0.4,0.4-0.8,0.4-1.2V91.4c0.2-0.2,0.4-0.4,0.5-0.7c0.9-1.5,0.7-3,0.1-4.3c1-1.1,1.6-2.5,1.3-4
		c-0.3-1.6-1.3-2.7-2.7-3.4c0.1-1.5-0.3-3-1.5-4c-1.3-1-2.8-1.1-4.2-0.8C100.9,73.1,99.6,72.2,98,72.2z M101.2,74.4
		C101.2,74.4,101.3,74.4,101.2,74.4c-0.1,0-0.2,0.1-0.3,0.1L101.2,74.4z M102.1,74.7c0.1,0,0.2,0.2,0.2,0.1l0,0.1
		C102.2,74.8,102.1,74.8,102.1,74.7z M98,76.3c0.7,0,0.7,0.1,0.9,0.6c0.1,0.3,0.3,0.6,0.5,0.8l0,0c0.1,0.1,0.3,0.2,0.4,0.3
		c0.1,0.1,0.1,0.1,0.3,0.2c0.5,0.3,1,0.2,1.1,0.2c0.4,0,0.7-0.1,1.1-0.3c0.3-0.2,0.8-0.2,1.1,0c0.3,0.3,0.4,0.4,0.2,1
		c-0.1,0.2-0.1,0.4-0.1,0.6c0,0.2,0.1,0.3,0.2,0.5c0,1,0.7,1.8,1.7,1.9c0.3,0.1,0.7,0.5,0.8,0.8c0.1,0.4-0.2,0.8-0.5,1
		c-0.6,0.4-1,1-1,1.8v0.6c0,0.4,0.1,0.9,0.4,1.2c0.1,0.1,0.2,0.9,0.1,1c-0.2,0.3-0.6,0.5-1,0.5c-0.8-0.1-1.5,0.2-2,0.8
		c-0.1,0.1-0.1,0-0.2,0.2c-0.4,0.4-0.6,0.9-0.6,1.4c0,0.5,0,0.6-0.4,0.7c-0.1,0-0.2,0.1-0.3,0.1c0,0,0,0,0,0c0,0,0,0-0.1,0
		s-0.5-0.1-0.8-0.4c-0.4-0.4-0.9-0.6-1.4-0.6H98h-0.4c-0.5,0-1.1,0.2-1.4,0.6c-0.3,0.3-0.7,0.4-1.1,0.3c-0.3-0.1-0.5-0.4-0.5-0.7
		c0-0.4-0.2-0.9-0.4-1.3c-0.3-0.4-0.5-0.5-0.6-0.6c-0.1-0.1-0.1-0.1-0.1-0.1c-0.5-0.4-1-0.5-1.6-0.4c-0.4,0.1-0.8-0.2-1-0.5
		c-0.2-0.4-0.3-0.5,0-0.9c0.3-0.4,0.4-0.8,0.4-1.3v-0.6c0-0.7-0.4-1.4-1-1.8c-0.3-0.2-0.5-0.6-0.5-1c0.1-0.3,0.5-0.7,0.8-0.8
		c0.9-0.2,1.7-1,1.7-1.9c0.1-0.2,0.2-0.3,0.2-0.5c0-0.2,0-0.4-0.1-0.6c-0.2-0.6-0.2-0.8,0.2-1c0.3-0.2,0.8-0.2,1.1,0
		c0.7,0.4,1.5,0.4,2.2,0c0.6-0.2,1-0.7,1.2-1.3C97.2,76.6,97.6,76.3,98,76.3z M88.5,80c0,0.2,0,0.4,0,0.6L88.5,80L88.5,80z
		 M107.5,80L107.5,80l0,0.6C107.5,80.4,107.4,80.2,107.5,80z M55.8,80.2c1,0.1,2.1,0.2,3.4,0.2c1.2,0,2.3-0.1,3.4-0.2l4.1,18.5H51.7
		L55.8,80.2z M91.8,94.8c0.5,0.6,1,1,1.7,1.3c0,0,0.1,0,0.1,0c1.6,0.5,3.1,0.1,4.3-0.7h0.3c0.7,0.4,1.4,1,2.3,1
		c0.4,0,1.1-0.1,1.8-0.4c0.7-0.3,1.3-0.7,1.7-1.2v10l-4.9-3.7c-0.7-0.5-1.7-0.5-2.4,0l-4.9,3.7V94.8z M74.9,98.7l0.8,4.1h8v-4.1
		H74.9z"/>
	<g id="surface1">
		<path class="st6" d="M16.7,24.7v8H14V86h70.7L82,83.4H16.7v-48h88v24h2.7V32.7h-2.7v-8H16.7z M19.3,27.4H102v5.3H19.3V27.4z
			 M28.7,38c-0.7,0-1.3,0.6-1.3,1.3c0,0.7,0.6,1.3,1.3,1.3s1.3-0.6,1.3-1.3C30,38.6,29.4,38,28.7,38z M32.7,38
			c-0.7,0-1.3,0.6-1.3,1.3c0,0.7,0.6,1.3,1.3,1.3s1.3-0.6,1.3-1.3C34,38.6,33.4,38,32.7,38z M36.7,38c-0.7,0-1.3,0.6-1.3,1.3
			c0,0.7,0.6,1.3,1.3,1.3s1.3-0.6,1.3-1.3C38,38.6,37.4,38,36.7,38z M40.7,38c-0.7,0-1.3,0.6-1.3,1.3c0,0.7,0.6,1.3,1.3,1.3
			s1.3-0.6,1.3-1.3C42,38.6,41.4,38,40.7,38z M44.7,38c-0.7,0-1.3,0.6-1.3,1.3c0,0.7,0.6,1.3,1.3,1.3c0.7,0,1.3-0.6,1.3-1.3
			C46,38.6,45.4,38,44.7,38z M48.7,38c-0.7,0-1.3,0.6-1.3,1.3c0,0.7,0.6,1.3,1.3,1.3s1.3-0.6,1.3-1.3C50,38.6,49.4,38,48.7,38z
			 M52.7,38c-0.7,0-1.3,0.6-1.3,1.3c0,0.7,0.6,1.3,1.3,1.3s1.3-0.6,1.3-1.3C54,38.6,53.4,38,52.7,38z M56.7,38
			c-0.7,0-1.3,0.6-1.3,1.3c0,0.7,0.6,1.3,1.3,1.3s1.3-0.6,1.3-1.3C58,38.6,57.4,38,56.7,38z M60.7,38c-0.7,0-1.3,0.6-1.3,1.3
			c0,0.7,0.6,1.3,1.3,1.3s1.3-0.6,1.3-1.3C62,38.6,61.4,38,60.7,38z M64.7,38c-0.7,0-1.3,0.6-1.3,1.3c0,0.7,0.6,1.3,1.3,1.3
			c0.7,0,1.3-0.6,1.3-1.3C66,38.6,65.4,38,64.7,38z M68.7,38c-0.7,0-1.3,0.6-1.3,1.3c0,0.7,0.6,1.3,1.3,1.3c0.7,0,1.3-0.6,1.3-1.3
			C70,38.6,69.4,38,68.7,38z M72.7,38c-0.7,0-1.3,0.6-1.3,1.3c0,0.7,0.6,1.3,1.3,1.3c0.7,0,1.3-0.6,1.3-1.3C74,38.6,73.4,38,72.7,38
			z M76.7,38c-0.7,0-1.3,0.6-1.3,1.3c0,0.7,0.6,1.3,1.3,1.3c0.7,0,1.3-0.6,1.3-1.3C78,38.6,77.4,38,76.7,38z M80.7,38
			c-0.7,0-1.3,0.6-1.3,1.3c0,0.7,0.6,1.3,1.3,1.3c0.7,0,1.3-0.6,1.3-1.3C82,38.6,81.4,38,80.7,38z M84.7,38c-0.7,0-1.3,0.6-1.3,1.3
			c0,0.7,0.6,1.3,1.3,1.3c0.7,0,1.3-0.6,1.3-1.3C86,38.6,85.4,38,84.7,38z M88.7,38c-0.7,0-1.3,0.6-1.3,1.3c0,0.7,0.6,1.3,1.3,1.3
			c0.7,0,1.3-0.6,1.3-1.3C90,38.6,89.4,38,88.7,38z M92.7,38c-0.7,0-1.3,0.6-1.3,1.3c0,0.7,0.6,1.3,1.3,1.3c0.7,0,1.3-0.6,1.3-1.3
			C94,38.6,93.4,38,92.7,38z M27.3,42c-0.7,0-1.3,0.6-1.3,1.3c0,0.7,0.6,1.3,1.3,1.3c0.7,0,1.3-0.6,1.3-1.3
			C28.7,42.6,28.1,42,27.3,42z M94,42c-0.7,0-1.3,0.6-1.3,1.3c0,0.7,0.6,1.3,1.3,1.3c0.7,0,1.3-0.6,1.3-1.3C95.3,42.6,94.7,42,94,42
			z M24.7,44.7c-0.7,0-1.3,0.6-1.3,1.3s0.6,1.3,1.3,1.3S26,46.8,26,46S25.4,44.7,24.7,44.7z M60.7,44.7c-8.1,0-14.7,6.6-14.7,14.7
			S52.6,74,60.7,74s14.7-6.6,14.7-14.7S68.7,44.7,60.7,44.7z M96.7,44.7c-0.7,0-1.3,0.6-1.3,1.3s0.6,1.3,1.3,1.3
			c0.7,0,1.3-0.6,1.3-1.3S97.4,44.7,96.7,44.7z M20.7,46c-0.7,0-1.3,0.6-1.3,1.3s0.6,1.3,1.3,1.3s1.3-0.6,1.3-1.3S21.4,46,20.7,46z
			 M100.7,46c-0.7,0-1.3,0.6-1.3,1.3s0.6,1.3,1.3,1.3c0.7,0,1.3-0.6,1.3-1.3S101.4,46,100.7,46z M60.7,47.4c6.6,0,12,5.4,12,12
			s-5.4,12-12,12s-12-5.4-12-12S54,47.4,60.7,47.4z M20.7,50c-0.7,0-1.3,0.6-1.3,1.3s0.6,1.3,1.3,1.3s1.3-0.6,1.3-1.3
			S21.4,50,20.7,50z M100.7,50c-0.7,0-1.3,0.6-1.3,1.3s0.6,1.3,1.3,1.3c0.7,0,1.3-0.6,1.3-1.3S101.4,50,100.7,50z M20.7,54
			c-0.7,0-1.3,0.6-1.3,1.3s0.6,1.3,1.3,1.3s1.3-0.6,1.3-1.3S21.4,54,20.7,54z M32.7,54c-2.9,0-5.3,2.4-5.3,5.3s2.4,5.3,5.3,5.3
			c2.9,0,5.3-2.4,5.3-5.3S35.6,54,32.7,54z M87.3,54c-2.9,0-5.3,2.4-5.3,5.3h2.7c0-1.5,1.2-2.7,2.7-2.7s2.7,1.2,2.7,2.7h2.7
			C92.7,56.4,90.3,54,87.3,54z M100.7,54c-0.7,0-1.3,0.6-1.3,1.3s0.6,1.3,1.3,1.3c0.7,0,1.3-0.6,1.3-1.3S101.4,54,100.7,54z
			 M32.7,56.7c1.5,0,2.7,1.2,2.7,2.7S34.2,62,32.7,62c-1.5,0-2.7-1.2-2.7-2.7S31.2,56.7,32.7,56.7z M20.7,58c-0.7,0-1.3,0.6-1.3,1.3
			s0.6,1.3,1.3,1.3s1.3-0.6,1.3-1.3S21.4,58,20.7,58z M100.7,58c-0.7,0-1.3,0.6-1.3,1.3h2.7C102,58.6,101.4,58,100.7,58z M20.7,62
			c-0.7,0-1.3,0.6-1.3,1.3s0.6,1.3,1.3,1.3s1.3-0.6,1.3-1.3S21.4,62,20.7,62z M83.3,62c-0.5,0-0.9,0.2-1.2,0.7
			c-0.2,0.4-0.2,0.9,0,1.3c0.2,0.4,0.7,0.7,1.2,0.7h1.3V74c0,4.9,2.7,9,6.6,11.3c-3.9,2.3-6.6,6.5-6.6,11.3v9.3h-1.3
			c-0.5,0-0.9,0.2-1.2,0.7c-0.2,0.4-0.2,0.9,0,1.3c0.2,0.4,0.7,0.7,1.2,0.7h29.3c0.5,0,0.9-0.2,1.2-0.7c0.2-0.4,0.2-0.9,0-1.3
			c-0.2-0.4-0.7-0.7-1.2-0.7h-1.3v-9.3c0-4.9-2.7-9-6.6-11.3c3.9-2.3,6.6-6.5,6.6-11.3v-9.3h1.3c0.5,0,0.9-0.2,1.2-0.7
			c0.2-0.4,0.2-0.9,0-1.3c-0.2-0.4-0.7-0.7-1.2-0.7H83.3z M87.3,64.7h21.3v2.7H87.3V64.7z M20.7,66c-0.7,0-1.3,0.6-1.3,1.3
			c0,0.7,0.6,1.3,1.3,1.3s1.3-0.6,1.3-1.3C22,66.6,21.4,66,20.7,66z M20.7,70c-0.7,0-1.3,0.6-1.3,1.3c0,0.7,0.6,1.3,1.3,1.3
			s1.3-0.6,1.3-1.3C22,70.6,21.4,70,20.7,70z M87.3,70h21.3v4c0,4.7-3,8.6-7.1,10l-0.9,0.3v1.9l0.9,0.3c4.1,1.5,7.1,5.4,7.1,10v4
			H87.3v-4c0-4.7,3-8.6,7.1-10l0.9-0.3v-1.9l-0.9-0.3c-4.1-1.5-7.1-5.4-7.1-10V70z M24.7,71.4c-0.7,0-1.3,0.6-1.3,1.3
			c0,0.7,0.6,1.3,1.3,1.3s1.3-0.6,1.3-1.3C26,72,25.4,71.4,24.7,71.4z M27.3,74c-0.7,0-1.3,0.6-1.3,1.3c0,0.7,0.6,1.3,1.3,1.3
			c0.7,0,1.3-0.6,1.3-1.3C28.7,74.6,28.1,74,27.3,74z M28.7,78c-0.7,0-1.3,0.6-1.3,1.3c0,0.7,0.6,1.3,1.3,1.3s1.3-0.6,1.3-1.3
			C30,78.6,29.4,78,28.7,78z M32.7,78c-0.7,0-1.3,0.6-1.3,1.3c0,0.7,0.6,1.3,1.3,1.3s1.3-0.6,1.3-1.3C34,78.6,33.4,78,32.7,78z
			 M36.7,78c-0.7,0-1.3,0.6-1.3,1.3c0,0.7,0.6,1.3,1.3,1.3s1.3-0.6,1.3-1.3C38,78.6,37.4,78,36.7,78z M40.7,78
			c-0.7,0-1.3,0.6-1.3,1.3c0,0.7,0.6,1.3,1.3,1.3s1.3-0.6,1.3-1.3C42,78.6,41.4,78,40.7,78z M44.7,78c-0.7,0-1.3,0.6-1.3,1.3
			c0,0.7,0.6,1.3,1.3,1.3c0.7,0,1.3-0.6,1.3-1.3C46,78.6,45.4,78,44.7,78z M48.7,78c-0.7,0-1.3,0.6-1.3,1.3c0,0.7,0.6,1.3,1.3,1.3
			s1.3-0.6,1.3-1.3C50,78.6,49.4,78,48.7,78z M52.7,78c-0.7,0-1.3,0.6-1.3,1.3c0,0.7,0.6,1.3,1.3,1.3s1.3-0.6,1.3-1.3
			C54,78.6,53.4,78,52.7,78z M56.7,78c-0.7,0-1.3,0.6-1.3,1.3c0,0.7,0.6,1.3,1.3,1.3s1.3-0.6,1.3-1.3C58,78.6,57.4,78,56.7,78z
			 M60.7,78c-0.7,0-1.3,0.6-1.3,1.3c0,0.7,0.6,1.3,1.3,1.3s1.3-0.6,1.3-1.3C62,78.6,61.4,78,60.7,78z M64.7,78
			c-0.7,0-1.3,0.6-1.3,1.3c0,0.7,0.6,1.3,1.3,1.3c0.7,0,1.3-0.6,1.3-1.3C66,78.6,65.4,78,64.7,78z M68.7,78c-0.7,0-1.3,0.6-1.3,1.3
			c0,0.7,0.6,1.3,1.3,1.3c0.7,0,1.3-0.6,1.3-1.3C70,78.6,69.4,78,68.7,78z M72.7,78c-0.7,0-1.3,0.6-1.3,1.3c0,0.7,0.6,1.3,1.3,1.3
			c0.7,0,1.3-0.6,1.3-1.3C74,78.6,73.4,78,72.7,78z M76.7,78c-0.7,0-1.3,0.6-1.3,1.3c0,0.7,0.6,1.3,1.3,1.3c0.7,0,1.3-0.6,1.3-1.3
			C78,78.6,77.4,78,76.7,78z M80.7,78c-0.7,0-1.3,0.6-1.3,1.3c0,0.7,0.6,1.3,1.3,1.3c0.7,0,1.3-0.6,1.3-1.3C82,78.6,81.4,78,80.7,78
			z M95.3,78c-0.7,0-1.3,0.6-1.3,1.3c0,0.7,0.6,1.3,1.3,1.3c0.7,0,1.3-0.6,1.3-1.3C96.7,78.6,96.1,78,95.3,78z M100.7,78
			c-0.7,0-1.3,0.6-1.3,1.3c0,0.7,0.6,1.3,1.3,1.3c0.7,0,1.3-0.6,1.3-1.3C102,78.6,101.4,78,100.7,78z M98,82c-0.7,0-1.3,0.6-1.3,1.3
			c0,0.7,0.6,1.3,1.3,1.3c0.7,0,1.3-0.6,1.3-1.3C99.3,82.6,98.7,82,98,82z M95.3,91.4c-0.7,0-1.3,0.6-1.3,1.3c0,0.7,0.6,1.3,1.3,1.3
			c0.7,0,1.3-0.6,1.3-1.3C96.7,92,96.1,91.4,95.3,91.4z M100.7,91.4c-0.7,0-1.3,0.6-1.3,1.3c0,0.7,0.6,1.3,1.3,1.3
			c0.7,0,1.3-0.6,1.3-1.3C102,92,101.4,91.4,100.7,91.4z M92.7,95.4c-0.7,0-1.3,0.6-1.3,1.3c0,0.7,0.6,1.3,1.3,1.3
			c0.7,0,1.3-0.6,1.3-1.3C94,96,93.4,95.4,92.7,95.4z M98,95.4c-0.7,0-1.3,0.6-1.3,1.3c0,0.7,0.6,1.3,1.3,1.3c0.7,0,1.3-0.6,1.3-1.3
			C99.3,96,98.7,95.4,98,95.4z M103.3,95.4c-0.7,0-1.3,0.6-1.3,1.3c0,0.7,0.6,1.3,1.3,1.3c0.7,0,1.3-0.6,1.3-1.3
			C104.7,96,104.1,95.4,103.3,95.4z M87.3,103.4h21.3v2.7H87.3V103.4z"/>
	</g>
	<rect x="61.5" y="41.6" class="st7" width="5" height="7.5"/>
	<rect x="61.5" y="79" class="st7" width="5" height="7.5"/>
	<path class="st7" d="M26.7,61.1l-10-0.8c-0.1,1.2-0.2,2.4-0.2,3.6c0,1.3,0.1,2.5,0.2,3.8l10-0.8c-0.1-1-0.2-2-0.2-3
		C26.6,63,26.7,62.1,26.7,61.1z"/>
	<path class="st7" d="M18.9,78.3c0.8,2.4,1.7,4.7,2.8,6.9l8.9-4.5c-0.9-1.7-1.6-3.6-2.2-5.4L18.9,78.3z"/>
	<path class="st7" d="M35.2,87.8l-7.7,6.4c1.6,1.9,3.3,3.7,5.2,5.3l6.6-7.5C37.8,90.7,36.5,89.3,35.2,87.8z"/>
	<path class="st7" d="M41.5,105.6c2.2,1.2,4.4,2.2,6.8,3l3.3-9.4c-1.9-0.7-3.6-1.5-5.4-2.4L41.5,105.6z"/>
	<path class="st7" d="M64,110.1c-1.2,0-2.5-0.1-3.9-0.2l0.8-7.4c1.1,0.1,2.1,0.1,3.1,0.1c21.3,0,38.6-17.3,38.6-38.6
		S85.3,25.4,64,25.4c-7.7,0-15.2,2.3-21.6,6.7l-1.2,0.8l5.5,5.5l-23.2,6.3l6.3-23.2l6.1,6.1l0.9-0.6c8-5.9,17.5-9.1,27.3-9.1
		c25.4,0,46.1,20.7,46.1,46.1S89.4,110.1,64,110.1z"/>
	<path class="st7" d="M64,19.1c24.7,0,44.9,20.1,44.9,44.9S88.7,108.9,64,108.9c-0.8,0-1.7,0-2.5-0.1l0.6-5c0.7,0,1.3,0.1,2,0.1
		c22,0,39.9-17.9,39.9-39.9S86,24.1,64,24.1c-8,0-15.7,2.4-22.3,6.9l-2.5,1.7l2.1,2.1l2.9,2.9L25.2,43l5.2-19.1l3.8,3.8l1.5,1.5
		l1.7-1.3C45.2,22.2,54.4,19.1,64,19.1 M64,16.6c-10.5,0-20.2,3.5-28.1,9.3l-6.8-6.8l-7.5,27.4L49,39.1l-6-6
		c6-4.1,13.2-6.5,20.9-6.5c20.7,0,37.4,16.7,37.4,37.4S84.7,101.4,64,101.4c-1.4,0-2.8-0.1-4.2-0.2l-1.1,9.9
		c1.7,0.2,3.5,0.3,5.3,0.3c26.2,0,47.4-21.2,47.4-47.4S90.2,16.6,64,16.6L64,16.6z"/>
	<path class="st7" d="M58.4,55.9c0-1.9,1.9-3.6,5.7-3.6c4.3,0,7.4,1.1,9.8,2.5v-6.6c-1.8-0.9-4.5-1.5-8.1-1.6l-3.8,0.1
		c-3.2,0.3-5.7,1.3-7.6,3.1c-1.9,1.8-2.9,4-2.9,6.5c0,10.1,18,10.4,18,15.9c0,2-2.6,3.5-5.6,3.5c-6,0-10.8-2.4-11.8-3.1v6.7
		c3,1.5,6.3,2.2,9.8,2.2l3.8-0.1c3.4-0.4,6-1.4,7.9-3c1.8-1.6,2.7-3.8,2.7-6.5C76.5,61.1,58.4,61.9,58.4,55.9z"/>
</g>
<g id="Layer_1_copy">
	<g class="st0">
		<g class="st1">
			<g class="st0">
				<path class="st7" d="M56,42.9v0.6c-2.7,0.2-5.3,1.1-7.4,3L30.9,61.9H18.7v31.2h92.1V42.9H56z"/>
			</g>
			<g>
				<circle class="st8" cx="98.6" cy="68" r="12.2"/>
			</g>
			<path class="st5" d="M85.6,55.2c-0.8-2.1-2.4-3.7-4.5-4.6l-18.6-8.2c-5.1-2.3-11.2-1.4-15.4,2.4L30.1,59.6l0,0H18.7
				c-1.3,0-2.3,1-2.3,2.3v31.2c0,1.3,1,2.3,2.3,2.3h11.4h18.3c1.3,0,2.3-1,2.3-2.3s-1-2.3-2.3-2.3h-16V63.7l17.7-15.5
				c2.9-2.5,7-3.1,10.5-1.6l18.7,8.3c0.9,0.4,1.7,1.1,2.1,2.1c0.4,0.9,0.4,2,0,2.9c-0.8,1.9-3,2.8-5,2l-14.1-6
				c-0.6-0.2-1.3-0.2-1.9,0c-0.6,0.3-1.1,0.8-1.2,1.4L59,57.8c-2.1,6.9-7.8,12-14.8,13.2c-1.2,0.2-2.1,1.4-1.8,2.7
				c0.2,1.1,1.1,1.9,2.3,1.9c0.2,0,0.2,0,0.4,0c8.1-1.4,14.8-6.9,17.7-14.5l11.8,5c4.3,1.8,9.2-0.2,11-4.4
				C86.5,59.6,86.5,57.3,85.6,55.2z M21,64.2h6.9v26.7H21V64.2z"/>
			<g>
				<path class="st5" d="M108.5,95.4H64.4c-5.5,0-9.9-4.4-9.9-9.9v-5.3c0-1.3,1-2.3,2.3-2.3c1.3,0,2.3,1,2.3,2.3v5.3
					c0,3,2.4,5.3,5.3,5.3h44.2c1.3,0,2.3,1,2.3,2.3S109.8,95.4,108.5,95.4z"/>
			</g>
			<g>
				<path class="st5" d="M108.5,45.2H85.7c-1.3,0-2.3-1-2.3-2.3c0-1.3,1-2.3,2.3-2.3h22.8c1.3,0,2.3,1,2.3,2.3
					C110.8,44.2,109.8,45.2,108.5,45.2z"/>
			</g>
		</g>
		<g class="st1">
			<circle class="st5" cx="70.5" cy="80.2" r="4.6"/>
		</g>
	</g>
	<g class="st0">
		<g class="st1">
			<g class="st0">
				<path class="st6" d="M56,42.9v0.6c-2.7,0.2-5.3,1.1-7.4,3L30.9,61.9H18.7v31.2h92.1V42.9H56z"/>
			</g>
			<g>
				<circle class="st3" cx="98.6" cy="68" r="12.2"/>
			</g>
			<path class="st4" d="M85.6,55.2c-0.8-2.1-2.4-3.7-4.5-4.6l-18.6-8.2c-5.1-2.3-11.2-1.4-15.4,2.4L30.1,59.6l0,0H18.7
				c-1.3,0-2.3,1-2.3,2.3v31.2c0,1.3,1,2.3,2.3,2.3h11.4h18.3c1.3,0,2.3-1,2.3-2.3s-1-2.3-2.3-2.3h-16V63.7l17.7-15.5
				c2.9-2.5,7-3.1,10.5-1.6l18.7,8.3c0.9,0.4,1.7,1.1,2.1,2.1c0.4,0.9,0.4,2,0,2.9c-0.8,1.9-3,2.8-5,2l-14.1-6
				c-0.6-0.2-1.3-0.2-1.9,0c-0.6,0.3-1.1,0.8-1.2,1.4L59,57.8c-2.1,6.9-7.8,12-14.8,13.2c-1.2,0.2-2.1,1.4-1.8,2.7
				c0.2,1.1,1.1,1.9,2.3,1.9c0.2,0,0.2,0,0.4,0c8.1-1.4,14.8-6.9,17.7-14.5l11.8,5c4.3,1.8,9.2-0.2,11-4.4
				C86.5,59.6,86.5,57.3,85.6,55.2z M21,64.2h6.9v26.7H21V64.2z"/>
			<g>
				<path class="st4" d="M108.5,95.4H64.4c-5.5,0-9.9-4.4-9.9-9.9v-5.3c0-1.3,1-2.3,2.3-2.3c1.3,0,2.3,1,2.3,2.3v5.3
					c0,3,2.4,5.3,5.3,5.3h44.2c1.3,0,2.3,1,2.3,2.3S109.8,95.4,108.5,95.4z"/>
			</g>
			<g>
				<path class="st4" d="M108.5,45.2H85.7c-1.3,0-2.3-1-2.3-2.3c0-1.3,1-2.3,2.3-2.3h22.8c1.3,0,2.3,1,2.3,2.3
					C110.8,44.2,109.8,45.2,108.5,45.2z"/>
			</g>
		</g>
		<g class="st1">
			<circle class="st4" cx="70.5" cy="80.2" r="4.6"/>
		</g>
	</g>
	<path class="st5" d="M58.9,17c-9.5,0.2-15.6,3.7-18.2,9.4c-2.5,5.4-2,12.3-0.2,19.8c-1,1.1-1.7,2.7-1.5,5l0,0c0.3,2.5,1,4.3,2,5.5
		c0.5,0.7,1.2,0.8,1.9,1.1c0.4,2.1,1,4.3,1.9,6.1c0.5,1,1.1,1.9,1.6,2.7c0.3,0.3,0.6,0.6,0.9,0.8c0,2.5,0.1,4.6-0.2,7.3
		c-0.7,1.6-2.2,2.9-4.7,4.2c-2.6,1.3-6,2.4-9.4,3.9c-3.4,1.5-6.9,3.3-9.7,6.1s-4.8,6.7-5.1,11.8l-0.1,2.2h20.5h3.9l0.8-4.1h-4.7
		H22.9c0.6-2.9,1.7-5.2,3.4-7c2.2-2.2,5.2-3.8,8.4-5.2c3.2-1.4,6.6-2.5,9.6-4c2-1,3.8-2.2,5.2-3.8c0.4,0.1,0.8,0.3,1.2,0.4
		c0.3,0.1,0.7,0.2,1.1,0.3l-5.1,23.3h25l-5.1-23.3c0.4-0.1,0.8-0.2,1.1-0.3c0.5-0.2,1-0.4,1.4-0.5c2.5,2.9,6.6,4.6,11,6.3
		c0.6,0.2,1.2,0.5,1.9,0.7c-0.4-1.3-0.5-2.6-0.2-3.9c0-0.2,0.1-0.4,0.1-0.5c-0.1,0-0.1-0.1-0.2-0.1c-4.9-1.9-9.2-3.6-10.3-6.6
		c0,0,0-0.1-0.1-0.1c-0.2-2.6-0.1-4.6-0.1-7.1c0.3-0.3,0.6-0.5,0.9-0.8c0.6-0.8,1.1-1.7,1.6-2.7c0.9-1.8,1.5-3.9,1.8-6.1
		c0.6-0.3,1.3-0.4,1.9-1.1c1-1.3,1.7-3,2-5.5c0.3-2.2-0.5-3.7-1.4-4.9c1-3.1,2.2-7.9,1.8-12.9c-0.2-2.7-1-5.4-2.8-7.7
		c-1.7-2.1-4.3-3.6-7.7-4.2C67.1,18.9,63.6,17,58.9,17L58.9,17L58.9,17z M59,21.1c3.9,0,6.7,1.8,7.6,3.4l0.5,0.9l1,0.1
		c2.9,0.4,4.5,1.5,5.7,2.9c1.1,1.4,1.7,3.3,1.9,5.5c0.4,4.3-1,9.5-1.9,12.3l-0.5,1.5l1.4,0.8c-0.1-0.1,0.8,0.5,0.6,2.2
		c-0.2,2-0.8,3-1.1,3.5s-0.6,0.4-0.6,0.4l-1.7,0.1l-0.2,1.7c-0.2,1.8-0.9,3.9-1.7,5.6c-0.4,0.8-0.9,1.6-1.2,2.1
		c-0.4,0.5-0.8,0.8-0.6,0.7L67,65.5v1.2c0,2.8-0.1,5.2,0.2,8.4c-0.2,0.1-0.4,0.2-0.7,0.3c-1.4,0.4-3.8,0.9-7.3,0.9
		c-3.5,0-5.9-0.5-7.3-0.9c-0.3-0.1-0.4-0.2-0.6-0.2c0.3-3.2,0.2-5.6,0.2-8.4v-1.2l-1.1-0.6c0.2,0.1-0.2-0.2-0.6-0.7
		c-0.4-0.5-0.8-1.3-1.3-2.1c-0.8-1.7-1.6-3.8-1.8-5.6l-0.2-1.7l-1.7-0.1c0,0-0.2,0-0.6-0.4c-0.4-0.5-0.9-1.5-1.1-3.5v0
		c-0.2-1.7,0.7-2.3,0.6-2.2l1.3-0.8l-0.4-1.5c-1.9-7.4-2.2-13.8-0.2-18.1C46.4,23.9,50.4,21.3,59,21.1z M98,72.2
		c-1.6,0-2.9,0.9-3.8,2.1c-1.4-0.3-2.9-0.2-4.2,0.8c-1.3,1-1.6,2.5-1.5,4c-1.3,0.7-2.4,1.8-2.7,3.4c-0.3,1.6,0.4,2.9,1.4,4
		c-0.6,1.4-0.6,3,0.1,4.3c0.1,0.2,0.3,0.5,0.5,0.7v17.5c0,1.1,0.9,2,2,2c0.4,0,0.9-0.1,1.2-0.4l6.9-5.2l6.9,5.2
		c0.9,0.7,2.2,0.5,2.9-0.4c0.3-0.4,0.4-0.8,0.4-1.2V91.4c0.2-0.2,0.4-0.4,0.5-0.7c0.9-1.5,0.7-3,0.1-4.3c1-1.1,1.6-2.5,1.3-4
		c-0.3-1.6-1.3-2.7-2.7-3.4c0.1-1.5-0.3-3-1.5-4c-1.3-1-2.8-1.1-4.2-0.8C100.9,73.1,99.6,72.2,98,72.2z M101.2,74.4
		C101.2,74.4,101.3,74.4,101.2,74.4c-0.1,0-0.2,0.1-0.3,0.1L101.2,74.4z M102.1,74.7c0.1,0,0.2,0.2,0.2,0.1l0,0.1
		C102.2,74.8,102.1,74.8,102.1,74.7z M98,76.3c0.7,0,0.7,0.1,0.9,0.6c0.1,0.3,0.3,0.6,0.5,0.8l0,0c0.1,0.1,0.3,0.2,0.4,0.3
		c0.1,0.1,0.1,0.1,0.3,0.2c0.5,0.3,1,0.2,1.1,0.2c0.4,0,0.7-0.1,1.1-0.3c0.3-0.2,0.8-0.2,1.1,0c0.3,0.3,0.4,0.4,0.2,1
		c-0.1,0.2-0.1,0.4-0.1,0.6c0,0.2,0.1,0.3,0.2,0.5c0,1,0.7,1.8,1.7,1.9c0.3,0.1,0.7,0.5,0.8,0.8c0.1,0.4-0.2,0.8-0.5,1
		c-0.6,0.4-1,1-1,1.8v0.6c0,0.4,0.1,0.9,0.4,1.2c0.1,0.1,0.2,0.9,0.1,1c-0.2,0.3-0.6,0.5-1,0.5c-0.8-0.1-1.5,0.2-2,0.8
		c-0.1,0.1-0.1,0-0.2,0.2c-0.4,0.4-0.6,0.9-0.6,1.4c0,0.5,0,0.6-0.4,0.7c-0.1,0-0.2,0.1-0.3,0.1c0,0,0,0,0,0c0,0,0,0-0.1,0
		s-0.5-0.1-0.8-0.4c-0.4-0.4-0.9-0.6-1.4-0.6H98h-0.4c-0.5,0-1.1,0.2-1.4,0.6c-0.3,0.3-0.7,0.4-1.1,0.3c-0.3-0.1-0.5-0.4-0.5-0.7
		c0-0.4-0.2-0.9-0.4-1.3c-0.3-0.4-0.5-0.5-0.6-0.6c-0.1-0.1-0.1-0.1-0.1-0.1c-0.5-0.4-1-0.5-1.6-0.4c-0.4,0.1-0.8-0.2-1-0.5
		c-0.2-0.4-0.3-0.5,0-0.9c0.3-0.4,0.4-0.8,0.4-1.3v-0.6c0-0.7-0.4-1.4-1-1.8c-0.3-0.2-0.5-0.6-0.5-1c0.1-0.3,0.5-0.7,0.8-0.8
		c0.9-0.2,1.7-1,1.7-1.9c0.1-0.2,0.2-0.3,0.2-0.5c0-0.2,0-0.4-0.1-0.6c-0.2-0.6-0.2-0.8,0.2-1c0.3-0.2,0.8-0.2,1.1,0
		c0.7,0.4,1.5,0.4,2.2,0c0.6-0.2,1-0.7,1.2-1.3C97.2,76.6,97.6,76.3,98,76.3z M88.5,80c0,0.2,0,0.4,0,0.6L88.5,80L88.5,80z
		 M107.5,80L107.5,80l0,0.6C107.5,80.4,107.4,80.2,107.5,80z M55.8,80.2c1,0.1,2.1,0.2,3.4,0.2c1.2,0,2.3-0.1,3.4-0.2l4.1,18.5H51.7
		L55.8,80.2z M91.8,94.8c0.5,0.6,1,1,1.7,1.3c0,0,0.1,0,0.1,0c1.6,0.5,3.1,0.1,4.3-0.7h0.3c0.7,0.4,1.4,1,2.3,1
		c0.4,0,1.1-0.1,1.8-0.4c0.7-0.3,1.3-0.7,1.7-1.2v10l-4.9-3.7c-0.7-0.5-1.7-0.5-2.4,0l-4.9,3.7V94.8z M74.9,98.7l0.8,4.1h8v-4.1
		H74.9z"/>
	<path class="st9" d="M58.9,17c-9.5,0.2-15.6,3.7-18.2,9.4c-2.5,5.4-2,12.3-0.2,19.8c-1,1.1-1.7,2.7-1.5,5l0,0c0.3,2.5,1,4.3,2,5.5
		c0.5,0.7,1.2,0.8,1.9,1.1c0.4,2.1,1,4.3,1.9,6.1c0.5,1,1.1,1.9,1.6,2.7c0.3,0.3,0.6,0.6,0.9,0.8c0,2.5,0.1,4.6-0.2,7.3
		c-0.7,1.6-2.2,2.9-4.7,4.2c-2.6,1.3-6,2.4-9.4,3.9c-3.4,1.5-6.9,3.3-9.7,6.1s-4.8,6.7-5.1,11.8l-0.1,2.2h20.5h3.9l0.8-4.1h-4.7
		H22.9c0.6-2.9,1.7-5.2,3.4-7c2.2-2.2,5.2-3.8,8.4-5.2c3.2-1.4,6.6-2.5,9.6-4c2-1,3.8-2.2,5.2-3.8c0.4,0.1,0.8,0.3,1.2,0.4
		c0.3,0.1,0.7,0.2,1.1,0.3l-5.1,23.3h25l-5.1-23.3c0.4-0.1,0.8-0.2,1.1-0.3c0.5-0.2,1-0.4,1.4-0.5c2.5,2.9,6.6,4.6,11,6.3
		c0.6,0.2,1.2,0.5,1.9,0.7c-0.4-1.3-0.5-2.6-0.2-3.9c0-0.2,0.1-0.4,0.1-0.5c-0.1,0-0.1-0.1-0.2-0.1c-4.9-1.9-9.2-3.6-10.3-6.6
		c0,0,0-0.1-0.1-0.1c-0.2-2.6-0.1-4.6-0.1-7.1c0.3-0.3,0.6-0.5,0.9-0.8c0.6-0.8,1.1-1.7,1.6-2.7c0.9-1.8,1.5-3.9,1.8-6.1
		c0.6-0.3,1.3-0.4,1.9-1.1c1-1.3,1.7-3,2-5.5c0.3-2.2-0.5-3.7-1.4-4.9c1-3.1,2.2-7.9,1.8-12.9c-0.2-2.7-1-5.4-2.8-7.7
		c-1.7-2.1-4.3-3.6-7.7-4.2C67.1,18.9,63.6,17,58.9,17L58.9,17L58.9,17z M59,21.1c3.9,0,6.7,1.8,7.6,3.4l0.5,0.9l1,0.1
		c2.9,0.4,4.5,1.5,5.7,2.9c1.1,1.4,1.7,3.3,1.9,5.5c0.4,4.3-1,9.5-1.9,12.3l-0.5,1.5l1.4,0.8c-0.1-0.1,0.8,0.5,0.6,2.2
		c-0.2,2-0.8,3-1.1,3.5s-0.6,0.4-0.6,0.4l-1.7,0.1l-0.2,1.7c-0.2,1.8-0.9,3.9-1.7,5.6c-0.4,0.8-0.9,1.6-1.2,2.1
		c-0.4,0.5-0.8,0.8-0.6,0.7L67,65.5v1.2c0,2.8-0.1,5.2,0.2,8.4c-0.2,0.1-0.4,0.2-0.7,0.3c-1.4,0.4-3.8,0.9-7.3,0.9
		c-3.5,0-5.9-0.5-7.3-0.9c-0.3-0.1-0.4-0.2-0.6-0.2c0.3-3.2,0.2-5.6,0.2-8.4v-1.2l-1.1-0.6c0.2,0.1-0.2-0.2-0.6-0.7
		c-0.4-0.5-0.8-1.3-1.3-2.1c-0.8-1.7-1.6-3.8-1.8-5.6l-0.2-1.7l-1.7-0.1c0,0-0.2,0-0.6-0.4c-0.4-0.5-0.9-1.5-1.1-3.5v0
		c-0.2-1.7,0.7-2.3,0.6-2.2l1.3-0.8l-0.4-1.5c-1.9-7.4-2.2-13.8-0.2-18.1C46.4,23.9,50.4,21.3,59,21.1z M98,72.2
		c-1.6,0-2.9,0.9-3.8,2.1c-1.4-0.3-2.9-0.2-4.2,0.8c-1.3,1-1.6,2.5-1.5,4c-1.3,0.7-2.4,1.8-2.7,3.4c-0.3,1.6,0.4,2.9,1.4,4
		c-0.6,1.4-0.6,3,0.1,4.3c0.1,0.2,0.3,0.5,0.5,0.7v17.5c0,1.1,0.9,2,2,2c0.4,0,0.9-0.1,1.2-0.4l6.9-5.2l6.9,5.2
		c0.9,0.7,2.2,0.5,2.9-0.4c0.3-0.4,0.4-0.8,0.4-1.2V91.4c0.2-0.2,0.4-0.4,0.5-0.7c0.9-1.5,0.7-3,0.1-4.3c1-1.1,1.6-2.5,1.3-4
		c-0.3-1.6-1.3-2.7-2.7-3.4c0.1-1.5-0.3-3-1.5-4c-1.3-1-2.8-1.1-4.2-0.8C100.9,73.1,99.6,72.2,98,72.2z M101.2,74.4
		C101.2,74.4,101.3,74.4,101.2,74.4c-0.1,0-0.2,0.1-0.3,0.1L101.2,74.4z M102.1,74.7c0.1,0,0.2,0.2,0.2,0.1l0,0.1
		C102.2,74.8,102.1,74.8,102.1,74.7z M98,76.3c0.7,0,0.7,0.1,0.9,0.6c0.1,0.3,0.3,0.6,0.5,0.8l0,0c0.1,0.1,0.3,0.2,0.4,0.3
		c0.1,0.1,0.1,0.1,0.3,0.2c0.5,0.3,1,0.2,1.1,0.2c0.4,0,0.7-0.1,1.1-0.3c0.3-0.2,0.8-0.2,1.1,0c0.3,0.3,0.4,0.4,0.2,1
		c-0.1,0.2-0.1,0.4-0.1,0.6c0,0.2,0.1,0.3,0.2,0.5c0,1,0.7,1.8,1.7,1.9c0.3,0.1,0.7,0.5,0.8,0.8c0.1,0.4-0.2,0.8-0.5,1
		c-0.6,0.4-1,1-1,1.8v0.6c0,0.4,0.1,0.9,0.4,1.2c0.1,0.1,0.2,0.9,0.1,1c-0.2,0.3-0.6,0.5-1,0.5c-0.8-0.1-1.5,0.2-2,0.8
		c-0.1,0.1-0.1,0-0.2,0.2c-0.4,0.4-0.6,0.9-0.6,1.4c0,0.5,0,0.6-0.4,0.7c-0.1,0-0.2,0.1-0.3,0.1c0,0,0,0,0,0c0,0,0,0-0.1,0
		s-0.5-0.1-0.8-0.4c-0.4-0.4-0.9-0.6-1.4-0.6H98h-0.4c-0.5,0-1.1,0.2-1.4,0.6c-0.3,0.3-0.7,0.4-1.1,0.3c-0.3-0.1-0.5-0.4-0.5-0.7
		c0-0.4-0.2-0.9-0.4-1.3c-0.3-0.4-0.5-0.5-0.6-0.6c-0.1-0.1-0.1-0.1-0.1-0.1c-0.5-0.4-1-0.5-1.6-0.4c-0.4,0.1-0.8-0.2-1-0.5
		c-0.2-0.4-0.3-0.5,0-0.9c0.3-0.4,0.4-0.8,0.4-1.3v-0.6c0-0.7-0.4-1.4-1-1.8c-0.3-0.2-0.5-0.6-0.5-1c0.1-0.3,0.5-0.7,0.8-0.8
		c0.9-0.2,1.7-1,1.7-1.9c0.1-0.2,0.2-0.3,0.2-0.5c0-0.2,0-0.4-0.1-0.6c-0.2-0.6-0.2-0.8,0.2-1c0.3-0.2,0.8-0.2,1.1,0
		c0.7,0.4,1.5,0.4,2.2,0c0.6-0.2,1-0.7,1.2-1.3C97.2,76.6,97.6,76.3,98,76.3z M88.5,80c0,0.2,0,0.4,0,0.6L88.5,80L88.5,80z
		 M107.5,80L107.5,80l0,0.6C107.5,80.4,107.4,80.2,107.5,80z M55.8,80.2c1,0.1,2.1,0.2,3.4,0.2c1.2,0,2.3-0.1,3.4-0.2l4.1,18.5H51.7
		L55.8,80.2z M91.8,94.8c0.5,0.6,1,1,1.7,1.3c0,0,0.1,0,0.1,0c1.6,0.5,3.1,0.1,4.3-0.7h0.3c0.7,0.4,1.4,1,2.3,1
		c0.4,0,1.1-0.1,1.8-0.4c0.7-0.3,1.3-0.7,1.7-1.2v10l-4.9-3.7c-0.7-0.5-1.7-0.5-2.4,0l-4.9,3.7V94.8z M74.9,98.7l0.8,4.1h8v-4.1
		H74.9z"/>
	<g class="st0">
		<rect x="61.5" y="41.6" class="st6" width="5" height="7.5"/>
		<rect x="61.5" y="79" class="st6" width="5" height="7.5"/>
		<path class="st6" d="M26.7,61.1l-10-0.8c-0.1,1.2-0.2,2.4-0.2,3.6c0,1.3,0.1,2.5,0.2,3.8l10-0.8c-0.1-1-0.2-2-0.2-3
			C26.6,63,26.7,62.1,26.7,61.1z"/>
		<path class="st6" d="M18.9,78.3c0.8,2.4,1.7,4.7,2.8,6.9l8.9-4.5c-0.9-1.7-1.6-3.6-2.2-5.4L18.9,78.3z"/>
		<path class="st6" d="M35.2,87.8l-7.7,6.4c1.6,1.9,3.3,3.7,5.2,5.3l6.6-7.5C37.8,90.7,36.5,89.3,35.2,87.8z"/>
		<path class="st6" d="M41.5,105.6c2.2,1.2,4.4,2.2,6.8,3l3.3-9.4c-1.9-0.7-3.6-1.5-5.4-2.4L41.5,105.6z"/>
		<path class="st6" d="M64,110.1c-1.2,0-2.5-0.1-3.9-0.2l0.8-7.4c1.1,0.1,2.1,0.1,3.1,0.1c21.3,0,38.6-17.3,38.6-38.6
			S85.3,25.4,64,25.4c-7.7,0-15.2,2.3-21.6,6.7l-1.2,0.8l5.5,5.5l-23.2,6.3l6.3-23.2l6.1,6.1l0.9-0.6c8-5.9,17.5-9.1,27.3-9.1
			c25.4,0,46.1,20.7,46.1,46.1S89.4,110.1,64,110.1z"/>
		<path class="st6" d="M64,19.1c24.7,0,44.9,20.1,44.9,44.9S88.7,108.9,64,108.9c-0.8,0-1.7,0-2.5-0.1l0.6-5c0.7,0,1.3,0.1,2,0.1
			c22,0,39.9-17.9,39.9-39.9S86,24.1,64,24.1c-8,0-15.7,2.4-22.3,6.9l-2.5,1.7l2.1,2.1l2.9,2.9L25.2,43l5.2-19.1l3.8,3.8l1.5,1.5
			l1.7-1.3C45.2,22.2,54.4,19.1,64,19.1 M64,16.6c-10.5,0-20.2,3.5-28.1,9.3l-6.8-6.8l-7.5,27.4L49,39.1l-6-6
			c6-4.1,13.2-6.5,20.9-6.5c20.7,0,37.4,16.7,37.4,37.4S84.7,101.4,64,101.4c-1.4,0-2.8-0.1-4.2-0.2l-1.1,9.9
			c1.7,0.2,3.5,0.3,5.3,0.3c26.2,0,47.4-21.2,47.4-47.4S90.2,16.6,64,16.6L64,16.6z"/>
		<path class="st6" d="M58.4,55.9c0-1.9,1.9-3.6,5.7-3.6c4.3,0,7.4,1.1,9.8,2.5v-6.6c-1.8-0.9-4.5-1.5-8.1-1.6l-3.8,0.1
			c-3.2,0.3-5.7,1.3-7.6,3.1c-1.9,1.8-2.9,4-2.9,6.5c0,10.1,18,10.4,18,15.9c0,2-2.6,3.5-5.6,3.5c-6,0-10.8-2.4-11.8-3.1v6.7
			c3,1.5,6.3,2.2,9.8,2.2l3.8-0.1c3.4-0.4,6-1.4,7.9-3c1.8-1.6,2.7-3.8,2.7-6.5C76.5,61.1,58.4,61.9,58.4,55.9z"/>
	</g>
</g>
</svg>
