<?xml version="1.0" encoding="UTF-8"?>
<svg xmlns="http://www.w3.org/2000/svg" xmlns:xlink="http://www.w3.org/1999/xlink" viewBox="0 0 80 80" version="1.1" fill="#000000"><g id="surface1" fill="#000000"><path style=" " d="M 40 8 C 29.519531 8 21 16.519531 21 27 L 21 31 L 14 31 C 12.355469 31 11 32.355469 11 34 L 11 62.417969 C 9.894531 62.859375 9 63.742188 9 65 L 9 68 C 9 69.644531 10.355469 71 12 71 L 68 71 C 69.644531 71 71 69.644531 71 68 L 71 65 C 71 63.742188 70.105469 62.859375 69 62.417969 L 69 34 C 69 32.355469 67.644531 31 66 31 L 59 31 L 59 27 C 59 16.519531 50.480469 8 40 8 Z M 40 10 C 49.402344 10 57 17.597656 57 27 L 57 31 L 23 31 L 23 27 C 23 17.597656 30.597656 10 40 10 Z M 14 33 L 66 33 C 66.566406 33 67 33.433594 67 34 L 67 64 L 68 64 C 68.566406 64 69 64.433594 69 65 L 69 68 C 69 68.566406 68.566406 69 68 69 L 12 69 C 11.433594 69 11 68.566406 11 68 L 11 65 C 11 64.433594 11.433594 64 12 64 L 13 64 L 13 34 C 13 33.433594 13.433594 33 14 33 Z M 16 36 C 15.449219 36 15 36.449219 15 37 C 15 37.550781 15.449219 38 16 38 C 16.550781 38 17 37.550781 17 37 C 17 36.449219 16.550781 36 16 36 Z M 20 36 C 19.449219 36 19 36.449219 19 37 C 19 37.550781 19.449219 38 20 38 C 20.550781 38 21 37.550781 21 37 C 21 36.449219 20.550781 36 20 36 Z M 24 36 C 23.449219 36 23 36.449219 23 37 C 23 37.550781 23.449219 38 24 38 C 24.550781 38 25 37.550781 25 37 C 25 36.449219 24.550781 36 24 36 Z M 28 36 C 27.449219 36 27 36.449219 27 37 C 27 37.550781 27.449219 38 28 38 C 28.550781 38 29 37.550781 29 37 C 29 36.449219 28.550781 36 28 36 Z M 32 36 C 31.449219 36 31 36.449219 31 37 C 31 37.550781 31.449219 38 32 38 C 32.550781 38 33 37.550781 33 37 C 33 36.449219 32.550781 36 32 36 Z M 36 36 C 35.449219 36 35 36.449219 35 37 C 35 37.550781 35.449219 38 36 38 C 36.550781 38 37 37.550781 37 37 C 37 36.449219 36.550781 36 36 36 Z M 40 36 C 39.449219 36 39 36.449219 39 37 C 39 37.550781 39.449219 38 40 38 C 40.550781 38 41 37.550781 41 37 C 41 36.449219 40.550781 36 40 36 Z M 44 36 C 43.449219 36 43 36.449219 43 37 C 43 37.550781 43.449219 38 44 38 C 44.550781 38 45 37.550781 45 37 C 45 36.449219 44.550781 36 44 36 Z M 48 36 C 47.449219 36 47 36.449219 47 37 C 47 37.550781 47.449219 38 48 38 C 48.550781 38 49 37.550781 49 37 C 49 36.449219 48.550781 36 48 36 Z M 52 36 C 51.449219 36 51 36.449219 51 37 C 51 37.550781 51.449219 38 52 38 C 52.550781 38 53 37.550781 53 37 C 53 36.449219 52.550781 36 52 36 Z M 56 36 C 55.449219 36 55 36.449219 55 37 C 55 37.550781 55.449219 38 56 38 C 56.550781 38 57 37.550781 57 37 C 57 36.449219 56.550781 36 56 36 Z M 60 36 C 59.449219 36 59 36.449219 59 37 C 59 37.550781 59.449219 38 60 38 C 60.550781 38 61 37.550781 61 37 C 61 36.449219 60.550781 36 60 36 Z M 64 36 C 63.449219 36 63 36.449219 63 37 C 63 37.550781 63.449219 38 64 38 C 64.550781 38 65 37.550781 65 37 C 65 36.449219 64.550781 36 64 36 Z M 40 41 C 37.25 41 35 43.25 35 46 C 35 47.585938 35.84375 48.902344 37 49.8125 L 37 54 C 37 55.644531 38.355469 57 40 57 C 41.644531 57 43 55.644531 43 54 L 43 49.8125 C 44.15625 48.902344 45 47.585938 45 46 C 45 43.25 42.75 41 40 41 Z M 40 43 C 41.667969 43 43 44.332031 43 46 C 43 47.113281 42.398438 48.054688 41.5 48.578125 L 41 48.871094 L 41 54 C 41 54.566406 40.566406 55 40 55 C 39.433594 55 39 54.566406 39 54 L 39 48.871094 L 38.5 48.578125 C 37.601563 48.054688 37 47.113281 37 46 C 37 44.332031 38.332031 43 40 43 Z M 16 62 C 15.449219 62 15 62.449219 15 63 C 15 63.550781 15.449219 64 16 64 C 16.550781 64 17 63.550781 17 63 C 17 62.449219 16.550781 62 16 62 Z M 20 62 C 19.449219 62 19 62.449219 19 63 C 19 63.550781 19.449219 64 20 64 C 20.550781 64 21 63.550781 21 63 C 21 62.449219 20.550781 62 20 62 Z M 24 62 C 23.449219 62 23 62.449219 23 63 C 23 63.550781 23.449219 64 24 64 C 24.550781 64 25 63.550781 25 63 C 25 62.449219 24.550781 62 24 62 Z M 28 62 C 27.449219 62 27 62.449219 27 63 C 27 63.550781 27.449219 64 28 64 C 28.550781 64 29 63.550781 29 63 C 29 62.449219 28.550781 62 28 62 Z M 32 62 C 31.449219 62 31 62.449219 31 63 C 31 63.550781 31.449219 64 32 64 C 32.550781 64 33 63.550781 33 63 C 33 62.449219 32.550781 62 32 62 Z M 36 62 C 35.449219 62 35 62.449219 35 63 C 35 63.550781 35.449219 64 36 64 C 36.550781 64 37 63.550781 37 63 C 37 62.449219 36.550781 62 36 62 Z M 40 62 C 39.449219 62 39 62.449219 39 63 C 39 63.550781 39.449219 64 40 64 C 40.550781 64 41 63.550781 41 63 C 41 62.449219 40.550781 62 40 62 Z M 44 62 C 43.449219 62 43 62.449219 43 63 C 43 63.550781 43.449219 64 44 64 C 44.550781 64 45 63.550781 45 63 C 45 62.449219 44.550781 62 44 62 Z M 48 62 C 47.449219 62 47 62.449219 47 63 C 47 63.550781 47.449219 64 48 64 C 48.550781 64 49 63.550781 49 63 C 49 62.449219 48.550781 62 48 62 Z M 52 62 C 51.449219 62 51 62.449219 51 63 C 51 63.550781 51.449219 64 52 64 C 52.550781 64 53 63.550781 53 63 C 53 62.449219 52.550781 62 52 62 Z M 56 62 C 55.449219 62 55 62.449219 55 63 C 55 63.550781 55.449219 64 56 64 C 56.550781 64 57 63.550781 57 63 C 57 62.449219 56.550781 62 56 62 Z M 60 62 C 59.449219 62 59 62.449219 59 63 C 59 63.550781 59.449219 64 60 64 C 60.550781 64 61 63.550781 61 63 C 61 62.449219 60.550781 62 60 62 Z M 64 62 C 63.449219 62 63 62.449219 63 63 C 63 63.550781 63.449219 64 64 64 C 64.550781 64 65 63.550781 65 63 C 65 62.449219 64.550781 62 64 62 Z " fill="#000000"/></g></svg>
